<?xml version="1.0" encoding="UTF-8" standalone="no"?><!DOCTYPE svg PUBLIC "-//W3C//DTD SVG 1.1//EN"
        "http://www.w3.org/Graphics/SVG/1.1/DTD/svg11.dtd">
<svg width="100%" height="100%" viewBox="0 0 424 131" version="1.1" xmlns="http://www.w3.org/2000/svg"  xml:space="preserve" style="fill-rule:evenodd;clip-rule:evenodd;stroke-linejoin:round;stroke-miterlimit:1.41421;"><g><g id="Stylight"><circle cx="123.153" cy="115.383" r="10.878" style="fill:#fff;"/><path d="M93.239,87.023c-2.72,-2.331 -3.497,-7.382 -3.497,-12.043l0,-39.627l17.094,0l-1.165,-1.942l-15.929,0l0,-19.037l-19.036,4.662l0,14.375l-8.547,0l1.166,1.942l7.381,0l0,41.958c0,8.158 2.331,20.59 19.036,20.59c17.094,0 20.979,-10.49 20.979,-10.49l-1.165,-1.165c0,0 -9.713,7.381 -16.317,0.777l0,0Z" style="fill:#fff;fill-rule:nonzero;"/><path d="M52.835,52.835l-30.302,-28.36c0,0 -3.497,-3.496 -3.497,-8.158c0,-6.216 5.828,-11.655 12.432,-11.655l0.777,0l0,-1.554l-3.885,0c-15.54,0 -28.36,10.489 -28.36,23.698c0,5.439 2.331,10.878 6.216,14.763l30.303,28.36c2.719,2.72 4.273,6.605 4.273,10.878c0,8.547 -6.216,15.151 -13.597,15.151l-1.166,0l0,1.943l4.662,0c17.094,0 30.691,-12.044 30.691,-26.806c0,-6.993 -3.108,-13.598 -8.547,-18.26l0,0Z" style="fill:#fff;fill-rule:nonzero;"/><path d="M162.002,55.943l11.655,-22.532l-23.698,0l12.043,22.532Z" style="fill:#fff;fill-rule:nonzero;"/><path d="M56.72,3.108l-22.144,0l22.144,19.036l0,-19.036Z" style="fill:#fff;fill-rule:nonzero;"/><path d="M266.896,75.757c14.763,0 26.806,-9.713 26.806,-22.145c0,-12.043 -12.043,-22.144 -26.806,-22.144c-14.763,0 -26.806,9.712 -26.806,22.144c0,12.432 12.043,22.145 26.806,22.145Zm-6.216,-35.354c0,-0.388 1.166,-5.827 6.216,-5.827c5.439,0 6.216,5.439 6.216,5.827c0.388,3.497 0.777,8.159 0.777,13.209c0,5.051 0,9.713 -0.777,13.209c0,0.389 -1.165,5.828 -6.216,5.828c-5.439,0 -6.216,-5.439 -6.216,-5.828c-0.388,-3.496 -0.777,-8.158 -0.777,-13.209c0,-5.05 0,-9.712 0.777,-13.209l0,0Z" style="fill:#fff;fill-rule:nonzero;"/><path d="M1.165,97.901l22.533,0l-22.533,-18.648l0,18.648Z" style="fill:#fff;fill-rule:nonzero;"/><path d="M108.779,33.411l30.302,66.044l12.044,-23.698l-20.202,-42.346l-22.144,0Z" style="fill:#fff;fill-rule:nonzero;"/><path d="M351.588,31.08c-17.094,0 -19.813,10.1 -20.979,12.043l0,1.942c1.943,-3.108 6.216,-5.439 11.655,-5.439c8.936,0 10.878,6.216 10.878,11.267l0,45.842l19.036,0l0,-44.288c0.389,-5.051 -0.388,-21.367 -20.59,-21.367l0,0Z" style="fill:#fff;fill-rule:nonzero;"/><path d="M178.319,96.347l19.036,0l0,-96.347l-19.036,5.05l0,91.297Z" style="fill:#fff;fill-rule:nonzero;"/><path d="M309.631,96.735l18.647,0l0,-96.347l-18.647,4.662l0,91.685Z" style="fill:#fff;fill-rule:nonzero;"/><path d="M422.294,86.246c0,0 -9.712,7.381 -16.705,0.777c-2.72,-2.331 -3.497,-7.382 -3.497,-12.043l0,-39.627l19.037,0l-1.166,-2.331l-17.871,0l0,-18.648l-18.647,4.662l0,14.375l-8.936,0l1.166,1.942l7.77,0l0,41.958c0,8.158 1.942,20.59 19.036,20.59c17.094,0 20.979,-10.49 20.979,-10.49l0,-1.165l-1.166,0Z" style="fill:#fff;fill-rule:nonzero;"/><circle cx="219.5" cy="14.374" r="10.878" style="fill:#fff;"/><path d="M301.472,41.18l0,-23.698l-22.533,12.044l22.533,11.654Z" style="fill:#fff;fill-rule:nonzero;"/><rect x="209.787" y="33.411" width="19.036" height="62.936" style="fill:#fff;"/><path d="M280.105,85.469l-29.137,0c-3.108,0 -5.439,-2.331 -5.439,-5.439c0,-2.719 1.942,-4.662 4.273,-5.827l-1.165,-0.777c-5.828,2.331 -10.101,8.546 -10.101,15.151c0,5.05 2.331,9.324 5.827,12.432c-5.439,3.108 -8.935,7.381 -8.935,12.432c0,8.935 10.489,16.705 32.245,16.705c25.252,0 34.188,-10.49 34.188,-22.921c-0.389,-12.432 -10.101,-21.756 -21.756,-21.756l0,0Zm-10.878,41.957c-9.712,0 -21.367,-4.273 -21.367,-13.597c0,-3.496 1.165,-6.993 3.496,-9.712c1.166,0.388 2.331,0.388 3.497,0.388l26.417,0c5.051,0 9.324,4.274 9.324,9.324c0,12.432 -17.87,13.597 -21.367,13.597l0,0Z" style="fill:#fff;fill-rule:nonzero;"/><text x="209.787px" y="44.677px" style="font-family:'Raleway-Regular', 'Raleway', sans-serif;font-size:0.936px;fill:#fff;">v</text></g></g></svg>