<?xml version="1.0" encoding="UTF-8" standalone="no"?><!DOCTYPE svg PUBLIC "-//W3C//DTD SVG 1.1//EN" "http://www.w3.org/Graphics/SVG/1.1/DTD/svg11.dtd"><svg width="100%" height="100%" viewBox="0 0 461 131" version="1.1" xmlns="http://www.w3.org/2000/svg" xmlns:xlink="http://www.w3.org/1999/xlink" xml:space="preserve" style="fill-rule:evenodd;clip-rule:evenodd;stroke-linejoin:round;stroke-miterlimit:1.41421;"><path id="weg.2e.de" d="M68.904,100.73l-20.207,0c-1.731,0 -3.276,-1.112 -3.832,-2.719l-7.062,-20.421c-13.216,3.005 -25.968,7.729 -37.803,14.55c9.521,-11.352 20.131,-22.237 31.668,-32.288l-7.876,-22.773c-0.432,-1.236 -0.247,-2.596 0.556,-3.708c0.742,-1.051 1.978,-1.731 3.337,-1.731l21.63,0c1.854,0 3.46,1.236 3.955,3.028l1.875,6.843c4.22,-2.939 8.532,-5.76 12.929,-8.448c0.56,-0.646 1.318,-1.113 2.172,-1.313c37.976,-22.697 82.156,-35.478 128.742,-29.772c30.961,3.831 56.669,17.303 86.023,27.994c5.117,1.864 10.19,3.688 15.255,5.441c1.385,-0.971 2.854,-1.839 4.396,-2.598c4.079,-1.978 8.714,-2.967 13.719,-2.967c5.191,0 9.641,1.051 13.349,3.09c0.494,0.247 0.927,0.556 1.421,0.804l0,-29.663c0,-2.225 1.854,-4.079 4.079,-4.079l20.084,0c2.225,0 4.079,1.854 4.079,4.079l0,46.676c1.153,0.146 2.312,0.284 3.478,0.413c1.909,-4.434 4.539,-8.324 7.831,-11.432c3.337,-3.152 7.292,-5.685 11.741,-7.416c4.45,-1.73 9.332,-2.595 14.461,-2.595c5.005,0 9.64,0.865 13.904,2.533c4.264,1.731 8.034,4.264 11.124,7.54c2.074,2.201 3.858,4.779 5.333,7.655c0.715,-0.217 1.43,-0.441 2.144,-0.672c10.321,-3.399 20.085,-8.59 29.045,-16.191c-6.118,19.095 -17.612,33.803 -34.05,48.944c-0.188,0.173 -0.377,0.345 -0.565,0.516l3.593,2.264c0.927,0.618 1.607,1.545 1.792,2.658c0.247,1.112 0,2.224 -0.618,3.151c-3.275,4.759 -7.601,8.405 -12.916,11c-5.314,2.349 -11.432,3.585 -18.23,3.585c-1.253,0 -2.494,-0.051 -3.722,-0.15c-18.017,10.429 -36.585,15.773 -59.064,18.442c-19.255,2.254 -43.327,1.459 -67.67,-2.268c-0.555,0.615 -1.131,1.207 -1.729,1.773c-3.523,3.276 -7.849,5.809 -12.854,7.416c-4.82,1.421 -10.197,2.225 -15.944,2.225c-5.747,0 -11.68,-0.865 -17.736,-2.596c-6.118,-1.792 -11.494,-4.387 -16.067,-7.724c-1.792,-1.298 -2.163,-3.832 -0.927,-5.624l7.205,-10.318c-6.676,-2.284 -13.368,-4.585 -20.065,-6.842c-1.175,0.757 -2.409,1.45 -3.702,2.081c-5.315,2.349 -11.433,3.585 -18.23,3.585c-5.006,0 -9.826,-0.804 -14.337,-2.349c-4.573,-1.606 -8.652,-3.955 -12.051,-7.045c-3.461,-3.089 -6.241,-6.983 -8.219,-11.494c-0.238,-0.542 -0.461,-1.094 -0.67,-1.654c-3.242,-0.743 -6.477,-1.436 -9.706,-2.069l-6.927,19.914c-0.68,1.668 -2.224,2.719 -3.955,2.719l-20.208,0c-1.792,0 -3.337,-1.174 -3.893,-2.843l-7.718,-24.497l-0.747,-0.012l-0.122,-0.002l-7.604,24.511c-0.556,1.73 -2.101,2.843 -3.894,2.843Zm145.996,4.503l-7.816,11.194c0.301,0.221 0.605,0.438 0.912,0.652c0.787,0.548 1.597,1.072 2.43,1.572c0.927,0.557 1.884,1.084 2.87,1.581l0.158,0.079l0.216,0.107c0.255,0.125 0.511,0.248 0.77,0.369l0.168,0.079l0.122,0.056c0.561,0.258 1.13,0.506 1.71,0.745c1.066,0.439 2.165,0.846 3.297,1.219c0.369,0.122 0.743,0.24 1.119,0.355l0.203,0.061l0.264,0.079l0.265,0.077l0.266,0.075c2.057,0.611 4.098,1.106 6.126,1.487l0.151,0.029l0.114,0.021c0.393,0.072 0.786,0.14 1.178,0.204c0.352,0.057 0.702,0.111 1.053,0.161c0.167,0.024 0.335,0.047 0.503,0.07l0.258,0.034c0.516,0.067 1.031,0.127 1.546,0.179c1.886,0.192 3.763,0.287 5.632,0.287l0.255,0l0.246,-0.002c0.617,-0.005 1.228,-0.02 1.831,-0.044c0.389,-0.016 0.775,-0.036 1.159,-0.059c0.081,-0.005 0.162,-0.011 0.243,-0.016l0.243,-0.017l0.184,-0.013c0.261,-0.02 0.52,-0.041 0.778,-0.064l0.239,-0.022l0.172,-0.017c0.597,-0.058 1.187,-0.126 1.77,-0.204l0.174,-0.024l0.145,-0.02c0.763,-0.108 1.515,-0.233 2.254,-0.374l0.107,-0.02l0.198,-0.039c0.455,-0.09 0.905,-0.187 1.352,-0.29l0.219,-0.051c0.383,-0.09 0.763,-0.185 1.14,-0.285c0.312,-0.083 0.622,-0.169 0.93,-0.258c0.232,-0.067 0.462,-0.135 0.692,-0.206c0.147,-0.045 0.293,-0.091 0.439,-0.138c0,0 0.195,-0.062 0.195,-0.062l0.007,-0.003l0.006,-0.002l0.06,-0.02l0.12,-0.039l0.014,-0.005l0.013,-0.004l0.067,-0.022l0.099,-0.034l0.021,-0.007l0.019,-0.006l0.065,-0.023l0.087,-0.029l0.028,-0.01l0.025,-0.009l0.062,-0.021l0.077,-0.027l0.034,-0.012l0.031,-0.011l0.057,-0.02l0.068,-0.025l0.041,-0.015l0.037,-0.013l0.052,-0.019l0.059,-0.021l0.049,-0.018l0.043,-0.016l0.045,-0.016l0.052,-0.02l0.055,-0.02l0.049,-0.018l0.039,-0.015l0.045,-0.017l0.062,-0.024l0.054,-0.02l0.033,-0.013l0.038,-0.014l0.07,-0.028l0.058,-0.022l0.027,-0.011l0.031,-0.012l0.078,-0.031l0.062,-0.024l0.021,-0.009l0.024,-0.009l0.088,-0.036l0.064,-0.025l0.015,-0.007l0.017,-0.006l0.102,-0.042l0.062,-0.025l0.009,-0.004l0.01,-0.004l0.13,-0.055l0.046,-0.019l0.004,-0.001c0.062,-0.027 0.125,-0.053 0.187,-0.08l0.003,-0.001l0.046,-0.02l0.129,-0.056l0.009,-0.004l0.01,-0.004l0.061,-0.027l0.1,-0.044l0.016,-0.007l0.015,-0.006l0.062,-0.028l0.086,-0.038l0.022,-0.01l0.021,-0.01l0.06,-0.027l0.075,-0.034l0.028,-0.013l0.027,-0.012l0.056,-0.026l0.066,-0.031l0.035,-0.016l0.032,-0.015l0.051,-0.024l0.059,-0.028l0.041,-0.019l0.037,-0.018l0.046,-0.022l0.051,-0.025l0.047,-0.023l0.043,-0.02l0.041,-0.02l0.044,-0.021l0.054,-0.027l0.048,-0.023l0.034,-0.018l0.038,-0.018l0.06,-0.03l0.053,-0.026l0.029,-0.015l0.031,-0.015l0.067,-0.035l0.057,-0.029l0.023,-0.012l0.025,-0.012l0.074,-0.039l0.061,-0.031l0.018,-0.009l0.018,-0.009l0.083,-0.044l0.063,-0.033l0.013,-0.007l0.011,-0.006l0.096,-0.051l0.061,-0.033l0.007,-0.003l0.005,-0.003l0.137,-0.074l0.032,-0.017l0.026,-0.015l0.142,-0.078l0.004,-0.003l0.007,-0.003l0.063,-0.035l0.092,-0.052l0.011,-0.006l0.012,-0.007l0.065,-0.037l0.078,-0.044l0.016,-0.01l0.018,-0.01l0.062,-0.036l0.069,-0.039l0.022,-0.013l0.023,-0.014l0.058,-0.034l0.062,-0.036l0.027,-0.016l0.029,-0.017l0.053,-0.031l0.054,-0.033l0.032,-0.019l0.035,-0.021l0.048,-0.029l0.047,-0.029l0.038,-0.023l0.04,-0.024l0.043,-0.026l0.041,-0.025l0.043,-0.027l0.045,-0.028l0.038,-0.024l0.035,-0.021l0.048,-0.031l0.051,-0.032l0.032,-0.02l0.028,-0.018l0.054,-0.034l0.056,-0.036l0.027,-0.018l0.022,-0.014l0.058,-0.038l0.062,-0.04l0.022,-0.014l0.016,-0.011l0.063,-0.041l0.067,-0.044l0.017,-0.011l0.011,-0.007l0.066,-0.045l0.073,-0.049l0.012,-0.008l0.005,-0.003l0.066,-0.045c0.114,-0.077 0.227,-0.155 0.34,-0.234l0.058,-0.041l0.004,-0.003l0.011,-0.008l0.08,-0.056l0.058,-0.041l0.008,-0.006l0.018,-0.013l0.072,-0.052l0.054,-0.039l0.013,-0.009l0.023,-0.017l0.066,-0.048l0.049,-0.036l0.018,-0.013l0.028,-0.021l0.06,-0.045l0.044,-0.032l0.022,-0.017l0.034,-0.025l0.055,-0.042l0.038,-0.028l0.027,-0.021l0.04,-0.03l0.049,-0.037l0.033,-0.026l0.03,-0.023l0.046,-0.035l0.043,-0.034l0.028,-0.022l0.034,-0.026l0.052,-0.041l0.038,-0.03l0.023,-0.018l0.036,-0.029l0.059,-0.046l0.033,-0.027l0.018,-0.014l0.038,-0.03l0.067,-0.054l0.028,-0.023l0.012,-0.01l0.038,-0.031l0.076,-0.062l0.023,-0.019l0.007,-0.006l0.034,-0.028l0.089,-0.074l0.018,-0.015l0.002,-0.002l0.02,-0.016c0.393,-0.329 0.777,-0.67 1.151,-1.021c3.09,-2.905 5.5,-6.551 7.23,-10.938c1.73,-4.388 2.596,-9.579 2.596,-15.512l-0.124,0l0,-55.123l-18.972,0l0,7.848l-0.247,0c-2.163,-3.275 -4.944,-5.685 -8.466,-7.23c-3.523,-1.545 -7.169,-2.348 -11,-2.348c-4.573,0 -8.652,0.926 -12.236,2.657c-3.646,1.792 -6.674,4.078 -9.146,7.045c-2.472,2.904 -4.388,6.303 -5.686,10.135c-1.297,3.831 -1.977,7.848 -1.977,12.112c0,4.264 0.68,8.281 1.977,12.05c1.298,3.77 3.214,7.107 5.686,9.95c2.534,2.843 5.562,5.129 9.146,6.798c3.584,1.668 7.725,2.533 12.359,2.533c4.079,0 7.725,-0.741 10.877,-2.224c3.213,-1.483 5.747,-3.399 7.601,-5.871l0.371,0l0,3.584c0,5.129 -1.36,9.27 -4.203,12.36c-2.842,3.089 -7.168,4.634 -13.039,4.634c-3.399,0 -6.921,-0.679 -10.444,-1.915c-3.522,-1.236 -6.736,-3.214 -9.702,-5.809l-2.195,3.143Zm183.725,-71.491c-2.233,0.012 -4.395,0.211 -6.484,0.591c-0.953,0.173 -1.891,0.383 -2.814,0.631l-0.196,0.053c-0.324,0.089 -0.647,0.182 -0.967,0.28c-0.778,0.238 -1.544,0.502 -2.3,0.793c-1.01,0.394 -1.987,0.833 -2.933,1.315c-0.126,0.064 -0.251,0.129 -0.376,0.194c-0.164,0.086 -0.326,0.173 -0.488,0.262c-0.142,0.078 -0.284,0.157 -0.426,0.237c-0.232,0.132 -0.462,0.267 -0.691,0.404c-0.217,0.131 -0.433,0.264 -0.647,0.4l-0.162,0.103c-0.141,0.091 -0.282,0.182 -0.421,0.275c-1.01,0.671 -1.976,1.396 -2.899,2.172l-0.058,0.049l-0.034,0.028c-0.111,0.095 -0.222,0.19 -0.332,0.285c-0.232,0.202 -0.461,0.407 -0.687,0.615c-0.076,0.07 -0.152,0.14 -0.228,0.211c-0.044,0.042 -0.087,0.083 -0.131,0.125l-0.007,0.006l-0.036,0.035l-0.071,0.068l-0.017,0.016l-0.014,0.013l-0.036,0.036l-0.055,0.053l-0.025,0.024l-0.02,0.02l-0.033,0.032l-0.043,0.043l-0.033,0.033l-0.027,0.026l-0.027,0.027l-0.034,0.033l-0.042,0.043l-0.031,0.032l-0.021,0.021l-0.025,0.025l-0.052,0.053l-0.036,0.036l-0.014,0.015l-0.017,0.017l-0.067,0.069l-0.035,0.036l-0.007,0.008l-0.009,0.009l-0.106,0.111l-0.009,0.01l-0.001,0.001c-0.041,0.043 -0.083,0.087 -0.124,0.131l-0.006,0.007l-0.033,0.035l-0.07,0.075l-0.014,0.016l-0.013,0.013l-0.034,0.038l-0.053,0.058l-0.023,0.024l-0.018,0.021l-0.032,0.034l-0.041,0.047l-0.031,0.033l-0.024,0.028l-0.026,0.029l-0.033,0.036l-0.038,0.044l-0.03,0.033l-0.02,0.023l-0.024,0.027l-0.049,0.056l-0.033,0.038l-0.014,0.016l-0.016,0.018l-0.061,0.071l-0.034,0.039l-0.007,0.009l-0.009,0.01l-0.092,0.109l-0.016,0.018l-0.001,0.001c-0.039,0.046 -0.078,0.092 -0.117,0.139l-0.005,0.006l-0.03,0.037l-0.068,0.081l-0.013,0.016l-0.011,0.013l-0.033,0.041l-0.051,0.062l-0.02,0.025l-0.017,0.021l-0.03,0.037l-0.04,0.049l-0.027,0.035l-0.023,0.028l-0.025,0.031l-0.031,0.04l-0.036,0.044l-0.027,0.035l-0.02,0.025l-0.023,0.03l-0.044,0.056l-0.032,0.04l-0.013,0.018l-0.016,0.02l-0.056,0.073l-0.032,0.041l-0.008,0.01l-0.008,0.012l-0.081,0.106l-0.019,0.025l-0.002,0.003c-0.037,0.048 -0.073,0.097 -0.109,0.145l-0.005,0.006l-0.028,0.038l-0.065,0.088l-0.011,0.015l-0.01,0.014l-0.032,0.043l-0.048,0.066l-0.018,0.025l-0.016,0.022l-0.029,0.039l-0.038,0.053l-0.025,0.035l-0.021,0.029l-0.024,0.034l-0.03,0.042l-0.032,0.046l-0.026,0.036l-0.019,0.027l-0.022,0.032l-0.04,0.057l-0.03,0.042l-0.013,0.02l-0.015,0.022l-0.051,0.073l-0.03,0.045l-0.008,0.012l-0.009,0.012l-0.07,0.103l-0.023,0.033l-0.002,0.004c-0.034,0.05 -0.068,0.101 -0.102,0.152l-0.004,0.005l-0.026,0.04l-0.062,0.094l-0.01,0.015l-0.009,0.013l-0.03,0.047l-0.046,0.07l-0.016,0.024l-0.014,0.022l-0.028,0.043l-0.036,0.056l-0.022,0.035l-0.02,0.03l-0.023,0.037l-0.029,0.044l-0.028,0.046l-0.024,0.038l-0.019,0.03l-0.021,0.034l-0.036,0.057l-0.028,0.045l-0.014,0.022l-0.014,0.023l-0.045,0.073l-0.03,0.049l-0.008,0.013l-0.009,0.014l-0.06,0.098l-0.025,0.042l-0.003,0.005c-0.032,0.052 -0.063,0.105 -0.095,0.158l-0.003,0.005l-0.026,0.044l-0.057,0.097l-0.009,0.014l-0.008,0.015l-0.03,0.05l-0.042,0.073l-0.014,0.024l-0.013,0.023l-0.027,0.047l-0.034,0.057l-0.019,0.035l-0.019,0.032l-0.023,0.04l-0.026,0.046l-0.026,0.045l-0.022,0.041l-0.019,0.032l-0.019,0.035l-0.032,0.058l-0.027,0.047l-0.014,0.025l-0.013,0.024l-0.039,0.071l-0.03,0.054l-0.008,0.016l-0.008,0.014l-0.05,0.093l-0.029,0.051l-0.003,0.007l-0.003,0.004l-0.004,0.008l-0.084,0.157l-0.069,0.13l-0.009,0.018l-0.005,0.008c-0.049,0.094 -0.098,0.189 -0.147,0.283l-0.013,0.025l-0.009,0.018c-0.048,0.093 -0.095,0.187 -0.142,0.281l-0.01,0.019l-0.012,0.024c-0.048,0.096 -0.095,0.192 -0.142,0.288l-0.005,0.009l-0.009,0.019c-0.256,0.525 -0.502,1.062 -0.738,1.609c-1.73,4.078 -2.595,8.528 -2.595,13.533c0,5.13 0.927,9.703 2.657,13.72c1.792,3.955 4.141,7.353 7.23,10.073c3.029,2.719 6.613,4.82 10.691,6.241c4.079,1.421 8.405,2.163 12.978,2.163c1.015,0 2.01,-0.03 2.985,-0.09l0.04,-0.003l0.019,-0.001l0.077,-0.005l0.103,-0.007l0.036,-0.002l0.037,-0.002l0.101,-0.007l0.074,-0.006l0.023,-0.001l0.049,-0.004l0.13,-0.01l0.048,-0.003l0.006,-0.001l0.04,-0.003c0.198,-0.016 0.396,-0.033 0.593,-0.051l0.063,-0.006l0.018,-0.002l0.054,-0.005l0.102,-0.01l0.057,-0.005l0.038,-0.004l0.074,-0.007l0.076,-0.008l0.041,-0.005l0.058,-0.006l0.096,-0.01l0.052,-0.006l0.023,-0.002l0.076,-0.009l0.119,-0.013l0.029,-0.004l0.004,0l0.075,-0.009l0.16,-0.019l0.127,-0.016l0.092,-0.011l0.013,-0.002l0.036,-0.004l0.099,-0.013l0.078,-0.01l0.034,-0.005l0.055,-0.007l0.077,-0.011l0.059,-0.008l0.056,-0.008l0.073,-0.01l0.055,-0.008l0.04,-0.006l0.08,-0.011l0.089,-0.013l0.035,-0.005l0.019,-0.003l0.111,-0.017l0.098,-0.015l0.037,-0.006l0.199,-0.031l0.006,-0.002l0.02,-0.003l0.091,-0.015l0.104,-0.017l0.028,-0.005l0.038,-0.006l0.077,-0.013l0.077,-0.013l0.05,-0.009l0.056,-0.01l0.059,-0.01l0.054,-0.01l0.075,-0.013l0.071,-0.013l0.04,-0.008l0.033,-0.006l0.104,-0.019l0.08,-0.015l0.021,-0.004l0.013,-0.003l0.193,-0.037l0.03,-0.006l0.063,-0.013l0.148,-0.029l0.019,-0.004l0.025,-0.005l0.074,-0.016l0.097,-0.02l0.042,-0.008l0.042,-0.009l0.061,-0.013l0.07,-0.015l0.065,-0.014l0.057,-0.013l0.045,-0.01l0.047,-0.01l0.092,-0.021l0.068,-0.015l0.028,-0.006l0.026,-0.006l0.137,-0.032l0.06,-0.014l0.01,-0.002c0.076,-0.018 0.152,-0.036 0.227,-0.054l0.013,-0.003l0.064,-0.016l0.124,-0.03l0.031,-0.008l0.03,-0.007l0.063,-0.016l0.086,-0.022l0.054,-0.014l0.045,-0.011l0.05,-0.013l0.06,-0.016l0.079,-0.02l0.058,-0.016l0.034,-0.009l0.038,-0.01l0.112,-0.03l0.062,-0.016l0.017,-0.005c0.075,-0.021 0.15,-0.041 0.224,-0.062l0.003,-0.001l0.028,-0.008l0.175,-0.05l0.021,-0.006l0.02,-0.005l0.06,-0.018l0.104,-0.03l0.043,-0.013l0.035,-0.01l0.053,-0.016l0.074,-0.022l0.065,-0.02l0.05,-0.015l0.039,-0.012l0.05,-0.015l0.093,-0.029l0.058,-0.018l0.024,-0.008l0.028,-0.008l0.14,-0.045l0.047,-0.015l0.008,-0.002c0.073,-0.024 0.147,-0.048 0.22,-0.072l0.01,-0.003l0.05,-0.017l0.13,-0.043l0.031,-0.01l0.026,-0.009l0.055,-0.019l0.088,-0.03l0.053,-0.018l0.04,-0.014l0.045,-0.016l0.061,-0.021l0.077,-0.027l0.052,-0.018l0.031,-0.011l0.039,-0.014l0.109,-0.039l0.054,-0.02l0.016,-0.006c0.072,-0.026 0.144,-0.052 0.216,-0.079l0.001,0l0.01,-0.004l0.185,-0.07l0.02,-0.007l0.017,-0.007l0.054,-0.02l0.104,-0.04l0.04,-0.016l0.032,-0.012l0.049,-0.02l0.074,-0.028l0.062,-0.025l0.045,-0.018l0.037,-0.015l0.049,-0.02l0.089,-0.036l0.053,-0.021l0.023,-0.009l0.028,-0.012l0.133,-0.055l0.043,-0.018l0.008,-0.003c0.07,-0.029 0.14,-0.059 0.21,-0.089l0.008,-0.003l0.044,-0.019l0.129,-0.055l0.029,-0.013l0.023,-0.01l0.052,-0.023l0.086,-0.037l0.049,-0.022l0.037,-0.017l0.043,-0.019l0.06,-0.026l0.072,-0.033l0.048,-0.022l0.03,-0.013l0.038,-0.018l0.103,-0.047l0.051,-0.024l0.015,-0.007c0.069,-0.032 0.137,-0.064 0.206,-0.096c1.376,-0.652 2.672,-1.389 3.889,-2.209c1.833,-1.235 3.486,-2.659 4.958,-4.267l0,-0.001l0.145,-0.159c0.297,-0.329 0.586,-0.666 0.868,-1.011c0.181,-0.222 0.359,-0.446 0.534,-0.674c0.082,-0.106 0.162,-0.212 0.242,-0.319l0.062,-0.084c0.112,-0.151 0.223,-0.303 0.332,-0.457c0.049,-0.068 0.097,-0.136 0.145,-0.205l0.117,-0.168l0.017,-0.025l-13.967,-8.837c-1.359,1.854 -3.151,3.399 -5.376,4.573c-2.225,1.174 -4.944,1.792 -8.096,1.792c-1.792,0 -3.522,-0.309 -5.191,-0.865c-1.668,-0.618 -3.151,-1.359 -4.511,-2.41c-1.298,-0.989 -2.41,-2.225 -3.275,-3.584c-0.865,-1.359 -1.36,-2.904 -1.545,-4.635l44.185,0c0.062,-0.742 0.124,-1.545 0.124,-2.348c0,-0.865 0,-1.669 0,-2.472c0,-5.191 -0.742,-9.826 -2.287,-13.966c-0.559,-1.539 -1.207,-2.989 -1.942,-4.352c0,0 -0.079,-0.145 -0.079,-0.145l-0.027,-0.051l-0.008,-0.014l-0.012,-0.022l-0.045,-0.081l-0.047,-0.083l-0.012,-0.023l-0.009,-0.015l-0.026,-0.046l-0.079,-0.14l-0.004,-0.007l-0.001,-0.001c-0.038,-0.068 -0.077,-0.135 -0.116,-0.202l-0.001,-0.003l-0.007,-0.01l-0.078,-0.134l-0.025,-0.042l-0.011,-0.018l-0.016,-0.028l-0.045,-0.075l-0.043,-0.072l-0.017,-0.028l-0.012,-0.02l-0.026,-0.043l-0.072,-0.118l-0.013,-0.021l-0.003,-0.006c-0.04,-0.064 -0.079,-0.127 -0.119,-0.191l-0.002,-0.004l-0.011,-0.017l-0.079,-0.125l-0.024,-0.037l-0.012,-0.019l-0.021,-0.032l-0.045,-0.072l-0.041,-0.063l-0.02,-0.031l-0.015,-0.023l-0.027,-0.041l-0.068,-0.103l-0.019,-0.029l-0.005,-0.009c-0.041,-0.061 -0.081,-0.121 -0.122,-0.182l-0.003,-0.004l-0.014,-0.021l-0.082,-0.121l-0.022,-0.032l-0.013,-0.019l-0.024,-0.035l-0.047,-0.068l-0.04,-0.057l-0.022,-0.032l-0.017,-0.025l-0.028,-0.04l-0.066,-0.093l-0.023,-0.033l-0.008,-0.01c-0.041,-0.059 -0.083,-0.117 -0.125,-0.175l-0.003,-0.004l-0.015,-0.021l-0.087,-0.119l-0.021,-0.028l-0.014,-0.02l-0.026,-0.035l-0.049,-0.067l-0.039,-0.052l-0.024,-0.032l-0.02,-0.026l-0.029,-0.039l-0.064,-0.085l-0.027,-0.035l-0.009,-0.012c-0.043,-0.056 -0.086,-0.112 -0.13,-0.168l-0.002,-0.004l-0.015,-0.019l-0.093,-0.119l-0.02,-0.025l-0.015,-0.019l-0.028,-0.035l-0.053,-0.067l-0.038,-0.048l-0.025,-0.03l-0.021,-0.027l-0.032,-0.039l-0.063,-0.078l-0.029,-0.036l-0.011,-0.013c-0.044,-0.054 -0.089,-0.108 -0.134,-0.163l-0.002,-0.002l-0.012,-0.014l-0.103,-0.123l-0.019,-0.022l-0.014,-0.017l-0.03,-0.035l-0.056,-0.066l-0.039,-0.045l-0.025,-0.029l-0.023,-0.027l-0.034,-0.039l-0.063,-0.073l-0.031,-0.035l-0.012,-0.014c-0.046,-0.052 -0.093,-0.105 -0.139,-0.157l-0.001,-0.001l-0.008,-0.009l-0.113,-0.126l-0.019,-0.021l-0.014,-0.015l-0.031,-0.034l-0.061,-0.067l-0.038,-0.041l-0.025,-0.028l-0.025,-0.026l-0.037,-0.04l-0.063,-0.068l-0.032,-0.034l-0.013,-0.014c-0.048,-0.051 -0.097,-0.102 -0.145,-0.152l-0.064,-0.069c-0.062,-0.065 -0.124,-0.131 -0.187,-0.196c-0.102,-0.106 -0.204,-0.211 -0.307,-0.315c-0.087,-0.087 -0.173,-0.173 -0.26,-0.259c-0.241,-0.236 -0.486,-0.467 -0.735,-0.694l0,0l-0.116,-0.105c-1.418,-1.275 -2.971,-2.394 -4.659,-3.342c-0.117,-0.066 -0.234,-0.13 -0.352,-0.194c-0.277,-0.151 -0.558,-0.296 -0.842,-0.437c-0.076,-0.038 -0.152,-0.075 -0.228,-0.112c-0.261,-0.127 -0.526,-0.25 -0.794,-0.368c-0.075,-0.034 -0.151,-0.067 -0.227,-0.101c-0.287,-0.124 -0.576,-0.244 -0.869,-0.359c-0.707,-0.29 -1.424,-0.551 -2.153,-0.784c-0.122,-0.039 -0.244,-0.078 -0.367,-0.115c-1.161,-0.355 -2.351,-0.641 -3.575,-0.859c-0.238,-0.042 -0.477,-0.082 -0.718,-0.119c-0.425,-0.065 -0.855,-0.123 -1.288,-0.173c-0.222,-0.026 -0.446,-0.049 -0.67,-0.07c-0.304,-0.029 -0.61,-0.055 -0.918,-0.076c-0.195,-0.013 -0.391,-0.025 -0.588,-0.036c-0.205,-0.011 -0.411,-0.02 -0.618,-0.028l-0.208,-0.007c-0.346,-0.011 -0.695,-0.017 -1.046,-0.019l-0.211,0l-0.217,0Zm-213.193,61.472c4.621,-2.221 8.337,-5.408 11.146,-9.501l-13.966,-8.837c-1.36,1.854 -3.152,3.399 -5.376,4.573c-2.225,1.174 -4.944,1.792 -8.096,1.792c-1.792,0 -3.522,-0.309 -5.191,-0.865c-1.668,-0.618 -3.152,-1.359 -4.511,-2.41c-1.298,-0.989 -2.41,-2.225 -3.275,-3.584c-0.866,-1.36 -1.36,-2.905 -1.545,-4.635l44.185,0c0.062,-0.742 0.124,-1.545 0.124,-2.348c0,-0.865 0,-1.669 0,-2.472c0,-5.191 -0.742,-9.826 -2.287,-13.966c-1.483,-4.079 -3.584,-7.54 -6.303,-10.382c-2.658,-2.843 -5.871,-5.068 -9.641,-6.551c-3.769,-1.545 -7.848,-2.286 -12.359,-2.286c-4.635,0 -8.961,0.803 -12.978,2.348c-3.955,1.545 -7.415,3.769 -10.382,6.55c-2.966,2.781 -5.253,6.242 -6.983,10.259c-1.73,4.078 -2.595,8.528 -2.595,13.533c0,5.13 0.927,9.703 2.657,13.72c0.357,0.787 0.736,1.553 1.138,2.295l0.024,0.045l0.053,0.097l0.012,0.02l0.005,0.009l0.026,0.048l0.042,0.076l0.013,0.023l0.009,0.017l0.032,0.057l0.034,0.061l0.012,0.02l0.013,0.024l0.038,0.068l0.027,0.047l0.009,0.016l0.017,0.029l0.045,0.079l0.021,0.036l0.006,0.01l0.018,0.031l0.054,0.094l0.017,0.028l0.013,0.022c0.08,0.136 0.16,0.272 0.242,0.406l0.03,0.051l0.052,0.084l0.026,0.043l0.007,0.012l0.018,0.028l0.042,0.068l0.026,0.042l0.013,0.02l0.022,0.036l0.035,0.056l0.023,0.037l0.019,0.029l0.027,0.044l0.029,0.045l0.02,0.03l0.023,0.037l0.034,0.052l0.022,0.035l0.015,0.024l0.03,0.045l0.039,0.06l0.017,0.026l0.01,0.016l0.036,0.054l0.044,0.067l0.011,0.017l0.006,0.008l0.042,0.063l0.049,0.074l0.006,0.008c0.032,0.049 0.065,0.097 0.098,0.145l0.005,0.008l0.045,0.066l0.048,0.07l0.006,0.009l0.011,0.015l0.041,0.059l0.042,0.06l0.012,0.018l0.016,0.022l0.036,0.052l0.036,0.051l0.018,0.026l0.021,0.03l0.032,0.043l0.03,0.043l0.025,0.034l0.026,0.037l0.026,0.035l0.025,0.035l0.032,0.043l0.031,0.043l0.02,0.028l0.019,0.026l0.04,0.054l0.035,0.048l0.015,0.02l0.013,0.018l0.05,0.065l0.038,0.052l0.009,0.012l0.007,0.009l0.067,0.088l0.034,0.045l0.003,0.004c0.036,0.048 0.073,0.095 0.11,0.143l0.004,0.005l0.035,0.045l0.064,0.083l0.01,0.011l0.01,0.013l0.037,0.047l0.05,0.064l0.016,0.02l0.016,0.02l0.034,0.043l0.042,0.053l0.023,0.028l0.022,0.026l0.03,0.037l0.034,0.043l0.031,0.037l0.026,0.033l0.025,0.03l0.028,0.034l0.038,0.046l0.032,0.038l0.019,0.023l0.021,0.025l0.048,0.057l0.035,0.042l0.014,0.016l0.014,0.018l0.06,0.07l0.037,0.042l0.007,0.01l0.008,0.009l0.088,0.101l0.024,0.028c0.04,0.046 0.08,0.091 0.12,0.137l0.004,0.005l0.034,0.038l0.071,0.08l0.012,0.014l0.011,0.012l0.037,0.041l0.056,0.062l0.019,0.021l0.017,0.018l0.034,0.038l0.046,0.05l0.026,0.029l0.023,0.025l0.03,0.032l0.038,0.041l0.034,0.037l0.029,0.031l0.025,0.026l0.03,0.032l0.043,0.046l0.033,0.035l0.02,0.021l0.022,0.023l0.054,0.056l0.037,0.039l0.013,0.014l0.016,0.016l0.068,0.07l0.036,0.038l0.016,0.015l0.106,0.109l0.014,0.013c0.043,0.044 0.086,0.087 0.129,0.13l0.006,0.005l0.035,0.035l0.076,0.075l0.014,0.013l0.012,0.012l0.038,0.038l0.059,0.057l0.022,0.021l0.019,0.018l0.036,0.034l0.048,0.047l0.03,0.028l0.025,0.024l0.031,0.029l0.039,0.038l0.039,0.036l0.031,0.029l0.025,0.024l0.032,0.029l0.048,0.044l0.036,0.034l0.019,0.018l0.024,0.021l0.059,0.054l0.04,0.037l0.013,0.012l0.016,0.014l0.076,0.068l0.038,0.035l0.015,0.013l0.129,0.115c1.031,0.926 2.127,1.78 3.285,2.56c0.083,0.056 0.167,0.112 0.251,0.167c2.175,1.435 4.565,2.612 7.155,3.514c0.45,0.157 0.904,0.306 1.36,0.446c0.226,0.069 0.453,0.137 0.68,0.202c0.103,0.03 0.207,0.059 0.31,0.088l0.166,0.046l0.126,0.034c0.128,0.034 0.256,0.068 0.384,0.101c1.004,0.26 2.022,0.48 3.055,0.659c2.232,0.389 4.532,0.587 6.897,0.587c6.18,0 11.618,-1.112 16.314,-3.337l0.163,-0.078Zm171.882,1.438l0,-92.45l-20.084,0l0,38.006l-0.247,0c-0.096,-0.112 -0.193,-0.224 -0.293,-0.335c-0.095,-0.106 -0.192,-0.212 -0.291,-0.318c-0.465,-0.496 -0.973,-0.981 -1.523,-1.457c-0.174,-0.151 -0.353,-0.301 -0.536,-0.45l-0.019,-0.016l-0.074,-0.059l-0.146,-0.117l-0.115,-0.091c-1.231,-0.966 -2.642,-1.89 -4.234,-2.781c-0.163,-0.091 -0.329,-0.181 -0.496,-0.267c-0.376,-0.195 -0.762,-0.378 -1.158,-0.548c-0.164,-0.071 -0.33,-0.14 -0.498,-0.206c-0.097,-0.039 -0.195,-0.077 -0.294,-0.114c-0.188,-0.071 -0.378,-0.14 -0.57,-0.206c-0.265,-0.091 -0.535,-0.176 -0.808,-0.257c-0.267,-0.08 -0.538,-0.154 -0.812,-0.224c-0.294,-0.075 -0.593,-0.144 -0.895,-0.208c-0.743,-0.156 -1.513,-0.28 -2.31,-0.372c-0.491,-0.056 -0.993,-0.1 -1.505,-0.132l-0.165,-0.01l-0.202,-0.011l-0.116,-0.005c-0.233,-0.011 -0.467,-0.019 -0.704,-0.025c-0.208,-0.005 -0.416,-0.008 -0.627,-0.01l-0.211,0c-0.273,0 -0.546,0.003 -0.817,0.01c-0.262,0.006 -0.524,0.016 -0.784,0.029c-0.478,0.024 -0.952,0.058 -1.421,0.103l0,0l-0.162,0.016c-0.316,0.033 -0.63,0.07 -0.942,0.112c-0.596,0.08 -1.184,0.179 -1.763,0.295c-0.303,0.061 -0.604,0.127 -0.903,0.198c-0.25,0.06 -0.5,0.123 -0.747,0.19c-0.316,0.085 -0.629,0.175 -0.939,0.272c-0.641,0.199 -1.269,0.423 -1.884,0.672c-0.226,0.091 -0.45,0.185 -0.672,0.283c-0.282,0.124 -0.56,0.253 -0.836,0.388l-0.056,0.027c-0.085,0.041 -0.17,0.082 -0.254,0.124l-0.027,0.013l-0.017,0.009c-0.082,0.04 -0.163,0.081 -0.244,0.122l-0.017,0.009l-0.024,0.012c-3.331,1.693 -6.165,3.89 -8.502,6.694c-2.472,2.905 -4.387,6.304 -5.747,10.197c-1.359,3.893 -2.039,7.91 -2.039,12.174c0,4.185 0.654,8.191 1.905,12.018c1.973,0.121 3.802,0.613 5.449,1.516c1.977,1.05 3.522,2.533 4.573,4.449c1.05,1.854 1.606,3.955 1.606,6.18c0,1.165 -0.152,2.279 -0.448,3.342c1.168,0.821 2.408,1.562 3.724,2.22c3.584,1.792 7.663,2.719 12.236,2.719c4.078,0 7.91,-0.865 11.556,-2.534c3.646,-1.668 6.426,-4.078 8.404,-7.168l0.247,0l0,7.972l18.478,0Zm-58.343,-6.347c-0.051,1.356 -0.415,2.607 -1.045,3.751c-0.741,1.236 -1.73,2.225 -3.028,2.904c-1.297,0.68 -2.781,1.051 -4.449,1.051c-1.669,0 -3.152,-0.309 -4.45,-1.051c-1.235,-0.679 -2.286,-1.606 -2.966,-2.842c-0.68,-1.298 -1.05,-2.657 -1.05,-4.141c0,-1.483 0.37,-2.842 1.05,-4.078c0.742,-1.236 1.731,-2.225 3.028,-2.905c1.298,-0.68 2.781,-1.05 4.45,-1.05c1.012,0 1.939,0.126 2.769,0.368l0.023,0.006l0.016,0.005l0.022,0.007l0.018,0.005l0.011,0.003l0.015,0.005l0.016,0.005l0.014,0.004l0.016,0.005l0.019,0.006l0.02,0.006l0.023,0.008l0.023,0.007l0.009,0.003l0.055,0.018l0.055,0.019l0.01,0.003l0.019,0.007l0.025,0.008l0.02,0.007l0.016,0.006l0.018,0.006l0.015,0.006l0.015,0.005l0.011,0.004l0.013,0.005l0.022,0.008l0.017,0.006l0.014,0.006l0.051,0.019c0.019,0.007 0.038,0.015 0.057,0.022l0.05,0.02l0.015,0.006l0.015,0.006l0.022,0.009l0.013,0.006l0.011,0.004l0.012,0.005l0.016,0.007l0.019,0.008l0.014,0.006l0.019,0.008l0.051,0.022l0.051,0.022l0.05,0.023l0.01,0.004l0.014,0.007l0.026,0.012l0.019,0.009l0.013,0.006l0.018,0.009l0.016,0.007l0.012,0.006l0.009,0.005l0.013,0.006l0.022,0.011l0.014,0.006l0.013,0.007l0.045,0.022l0.002,0.001c0.018,0.009 0.036,0.018 0.053,0.028l0.046,0.023l0.014,0.007l0.013,0.007l0.021,0.012l0.013,0.007l0.009,0.005l0.011,0.006l0.015,0.008l0.018,0.01l0.012,0.006l0.018,0.01l0.047,0.026l0.046,0.027c0.081,0.043 0.162,0.086 0.241,0.131c0.083,0.046 0.165,0.094 0.246,0.143c0.041,0.025 0.082,0.05 0.123,0.076c0.044,0.027 0.088,0.055 0.131,0.084l0.019,0.012l0.055,0.036l0.011,0.008c0.679,0.455 1.267,0.996 1.741,1.634c0.017,0.023 0.034,0.047 0.051,0.07c0.053,0.074 0.105,0.149 0.155,0.226c0.024,0.035 0.047,0.072 0.07,0.108c0.063,0.1 0.123,0.203 0.181,0.307l0.004,0.008c0.232,0.422 0.428,0.865 0.586,1.325c0.044,0.129 0.085,0.26 0.123,0.391c0.035,0.12 0.067,0.241 0.097,0.363c0.067,0.276 0.12,0.556 0.16,0.839c0.056,0.401 0.085,0.809 0.085,1.222c0,0.021 0,0.041 0,0.062l0,0.008l0,0.008l-0.001,0.016l0,0.041l0,0.004l0,0.001c0,0.019 -0.001,0.039 -0.001,0.058l0,0.01l-0.001,0.012l0,0.013l-0.001,0.026l0,0.018l-0.001,0.029l-0.001,0.019l0,0.003Zm-271.347,-54.586l21.073,60.933l20.207,0l7.208,-23.291l4.534,-14.653l0.247,0l11.989,37.944l20.208,0l21.073,-60.933l-20.826,0l-10.629,38.562l-0.248,0l-11.247,-38.562l-20.208,0l-10.828,38.391l-0.048,0.171l-0.371,0l-0.025,-0.094l-0.01,-0.036l-10.47,-38.432l-21.629,0Zm309.482,36.09c-0.741,1.854 -1.73,3.522 -2.966,5.005c-1.236,1.422 -2.781,2.596 -4.573,3.523c-1.792,0.927 -3.832,1.359 -6.118,1.359c-2.348,0 -4.45,-0.432 -6.242,-1.359c-1.792,-0.865 -3.275,-2.039 -4.511,-3.523c-1.236,-1.483 -2.163,-3.151 -2.781,-5.067c-0.618,-1.916 -0.927,-3.831 -0.927,-5.809c0,-1.977 0.309,-3.893 0.927,-5.747c0.618,-1.854 1.545,-3.523 2.781,-4.944c1.236,-1.421 2.719,-2.534 4.511,-3.461c1.792,-0.927 3.894,-1.359 6.242,-1.359c2.286,0 4.326,0.432 6.118,1.359c1.792,0.866 3.337,2.04 4.573,3.523c1.298,1.483 2.286,3.152 2.966,5.005c0.68,1.854 1.051,3.77 1.051,5.748c0,1.977 -0.371,3.893 -1.051,5.747Zm-107.219,4.882c-1.236,-1.421 -2.163,-3.09 -2.842,-4.944c-0.68,-1.854 -0.989,-3.831 -0.989,-5.871c0,-2.101 0.309,-4.14 0.989,-5.994c0.679,-1.854 1.606,-3.523 2.842,-4.882c1.236,-1.36 2.719,-2.472 4.45,-3.275c1.73,-0.804 3.769,-1.236 6.056,-1.236c2.286,0 4.326,0.432 6.118,1.236c1.792,0.803 3.337,1.915 4.635,3.337c1.359,1.421 2.348,3.09 3.028,4.944c0.679,1.853 1.05,3.831 1.05,5.87c0,2.101 -0.371,4.079 -1.05,5.995c-0.742,1.854 -1.731,3.522 -2.967,4.882c-1.236,1.359 -2.78,2.472 -4.634,3.337c-1.854,0.865 -3.894,1.297 -6.18,1.297c-2.287,0 -4.326,-0.432 -6.056,-1.297c-1.731,-0.804 -3.214,-1.978 -4.45,-3.399Zm-49.438,-17.427c0,-3.152 -0.989,-5.933 -3.028,-8.219c-1.977,-2.287 -5.006,-3.399 -9.022,-3.399c-1.978,0 -3.77,0.309 -5.377,0.927c-1.607,0.618 -3.09,1.421 -4.264,2.534c-1.236,1.05 -2.225,2.286 -2.966,3.708c-0.742,1.421 -1.174,2.904 -1.236,4.449l25.893,0Zm217.763,-11.605c0.228,-0.009 0.459,-0.013 0.692,-0.013c0.188,0 0.374,0.002 0.558,0.007c0.203,0.006 0.402,0.014 0.599,0.026c1.584,0.09 2.996,0.373 4.233,0.853c0.365,0.141 0.714,0.299 1.048,0.474c0.124,0.066 0.247,0.134 0.368,0.204c0.165,0.097 0.327,0.198 0.484,0.304c0.646,0.433 1.224,0.943 1.732,1.531l0.117,0.133l0.032,0.037l0.093,0.109l0.023,0.028l0.117,0.142l0.003,0.003l0.12,0.151c1.698,2.166 2.523,4.736 2.523,7.616l-25.893,0c0.062,-1.545 0.494,-3.028 1.236,-4.449c0.424,-0.812 0.928,-1.564 1.513,-2.254c0.078,-0.093 0.158,-0.184 0.239,-0.275l0.014,-0.015l0.058,-0.063l0.037,-0.041l0.052,-0.056l0.044,-0.047l0.049,-0.052l0.05,-0.052l0.046,-0.047l0.057,-0.058l0.04,-0.041l0.088,-0.087l0.01,-0.009l0.013,-0.013l0.087,-0.085l0.036,-0.034l0.067,-0.063l0.04,-0.038l0.065,-0.059l0.041,-0.038l0.066,-0.059l0.04,-0.036l0.072,-0.063l0.035,-0.031l0.107,-0.092l0.027,-0.025c0.291,-0.273 0.6,-0.528 0.926,-0.766c0.208,-0.152 0.422,-0.296 0.642,-0.435c0.091,-0.057 0.184,-0.114 0.277,-0.169l0.098,-0.058l0.06,-0.034c0.14,-0.08 0.282,-0.158 0.426,-0.234c0.14,-0.074 0.281,-0.145 0.425,-0.215l0.061,-0.03l0.085,-0.04c0.402,-0.191 0.815,-0.366 1.237,-0.528l0.152,-0.057l0.143,-0.052c0.337,-0.12 0.683,-0.227 1.036,-0.321c0.982,-0.261 2.027,-0.419 3.132,-0.474c0.074,-0.004 0.148,-0.007 0.222,-0.01Z" style="fill:#fff;"/></svg>